<?xml version="1.0" encoding="UTF-8" ?>
<!DOCTYPE svg PUBLIC "-//W3C//DTD SVG 1.1//EN" "http://www.w3.org/Graphics/SVG/1.1/DTD/svg11.dtd">
<svg viewBox="0 0 1537 696" version="1.1" xmlns="http://www.w3.org/2000/svg">
<g id="#ffffffff">
<path fill="#ffffff" opacity="1.00" d=" M 0.00 0.00 L 1537.00 0.00 L 1537.00 696.00 L 0.00 696.00 L 0.00 0.00 M 728.21 1.75 C 728.21 175.17 728.22 348.58 728.21 522.00 C 739.53 522.00 750.85 522.00 762.18 522.00 C 762.18 348.58 762.18 175.17 762.18 1.75 C 750.85 1.75 739.53 1.75 728.21 1.75 M 1.39 131.75 C 14.77 131.75 28.16 131.75 41.54 131.75 C 41.54 122.00 41.54 112.25 41.54 102.50 C 84.03 102.50 126.52 102.51 169.00 102.50 C 172.35 102.50 175.69 102.71 179.02 102.99 C 196.85 104.55 213.26 113.82 226.02 126.05 C 240.05 140.41 249.60 159.10 252.95 178.91 C 257.00 204.04 251.63 230.59 237.92 252.06 C 228.24 267.52 213.55 280.41 195.84 285.59 C 187.57 288.47 178.69 288.74 170.02 288.76 C 127.19 288.74 84.37 288.76 41.54 288.75 C 41.55 274.16 41.54 259.58 41.54 245.00 C 28.16 245.00 14.77 245.00 1.39 245.00 C 1.40 321.67 1.39 398.33 1.39 475.00 C 14.77 475.00 28.16 475.00 41.54 475.00 C 41.54 424.83 41.54 374.67 41.54 324.50 C 81.78 324.50 122.02 324.50 162.26 324.50 C 194.35 374.61 226.24 424.84 258.24 475.00 C 273.41 474.99 288.57 475.01 303.73 474.99 C 270.37 422.50 237.02 370.00 203.65 317.51 C 231.11 312.33 255.65 295.20 271.20 272.15 C 283.89 253.51 291.61 231.57 293.71 209.12 C 296.67 181.64 290.37 153.40 276.44 129.57 C 260.42 101.23 233.32 79.23 201.99 70.12 C 192.11 68.03 182.07 66.82 171.98 66.75 C 115.12 66.75 58.26 66.75 1.40 66.75 C 1.39 88.42 1.40 110.08 1.39 131.75 M 376.80 66.75 C 376.79 202.83 376.80 338.92 376.80 475.00 C 468.17 475.00 559.55 475.00 650.93 475.00 C 650.92 463.08 650.94 451.16 650.92 439.25 C 572.93 439.24 494.94 439.25 416.95 439.25 C 416.95 387.33 416.92 335.42 416.96 283.50 C 483.49 283.50 550.01 283.50 616.54 283.50 C 616.54 272.17 616.54 260.83 616.54 249.50 C 550.01 249.50 483.49 249.50 416.96 249.50 C 416.93 200.50 416.93 151.50 416.96 102.50 C 493.22 102.50 569.48 102.50 645.73 102.50 C 645.74 90.58 645.74 78.67 645.73 66.75 C 556.09 66.75 466.44 66.75 376.80 66.75 M 873.50 475.00 C 937.67 474.99 1001.84 475.02 1066.01 474.98 C 1090.64 474.91 1115.57 468.16 1135.81 453.89 C 1155.06 440.56 1169.84 420.68 1176.48 398.17 C 1180.61 384.17 1181.22 369.34 1179.58 354.89 C 1177.40 335.00 1169.45 315.81 1156.85 300.25 C 1143.68 283.50 1124.89 271.77 1104.58 265.72 C 1114.38 261.02 1123.64 255.10 1131.52 247.57 C 1147.23 232.52 1157.57 212.21 1161.42 190.86 C 1166.87 160.52 1159.23 128.01 1140.59 103.43 C 1126.08 83.83 1103.60 69.58 1079.11 67.20 C 1063.43 66.31 1047.71 66.94 1032.02 66.75 C 979.18 66.75 926.34 66.75 873.50 66.75 C 873.49 202.83 873.50 338.91 873.50 475.00 M 1256.37 475.00 C 1348.36 475.00 1440.35 475.00 1532.33 475.00 C 1532.33 463.08 1532.33 451.17 1532.33 439.25 C 1453.73 439.24 1375.13 439.25 1296.52 439.25 C 1296.52 315.08 1296.53 190.92 1296.52 66.75 C 1283.14 66.75 1269.75 66.75 1256.38 66.75 C 1256.37 202.83 1256.38 338.91 1256.37 475.00 M 215.69 691.00 C 217.66 690.99 219.62 690.99 221.59 690.99 C 223.95 685.18 226.34 679.38 228.72 673.58 C 237.06 673.58 245.40 673.58 253.75 673.58 C 256.16 679.38 258.56 685.19 260.97 691.00 C 262.90 690.99 264.84 690.99 266.78 691.00 C 259.06 672.43 251.34 653.86 243.63 635.29 C 242.09 635.27 240.55 635.27 239.01 635.27 C 231.22 653.84 223.46 672.42 215.69 691.00 M 311.54 636.18 C 307.30 637.56 303.21 640.31 301.52 644.60 C 299.40 649.76 299.71 656.81 304.58 660.35 C 312.43 665.88 322.88 664.93 331.04 669.80 C 335.32 672.20 336.03 678.39 333.29 682.21 C 331.57 684.49 328.75 685.60 326.03 686.12 C 317.18 687.72 307.50 685.28 300.96 678.98 C 300.05 680.46 299.15 681.93 298.25 683.43 C 307.62 691.45 321.68 693.87 333.04 688.99 C 341.46 685.38 343.58 672.46 336.48 666.59 C 328.82 660.58 318.25 661.57 309.87 657.16 C 304.04 654.04 305.05 644.58 310.62 641.72 C 318.60 638.08 328.99 639.42 335.39 645.62 C 336.24 644.16 337.12 642.71 337.99 641.27 C 330.82 635.10 320.47 633.35 311.54 636.18 M 355.86 645.91 C 346.55 658.60 350.06 678.22 363.01 687.08 C 374.24 695.50 392.46 691.13 398.73 678.60 C 397.20 677.79 395.68 676.99 394.16 676.20 C 389.52 685.51 376.79 689.43 367.79 684.15 C 356.98 678.09 353.15 663.30 358.30 652.30 C 361.39 644.98 368.94 639.50 377.05 639.95 C 383.79 639.86 390.21 643.80 393.31 649.77 C 394.73 648.87 396.17 647.99 397.60 647.10 C 395.70 643.58 393.09 640.38 389.63 638.32 C 378.64 631.66 362.99 635.24 355.86 645.91 M 411.99 635.28 C 411.98 653.85 411.99 672.42 411.99 691.00 C 424.46 691.00 436.93 691.00 449.41 691.00 C 449.40 689.37 449.40 687.75 449.41 686.14 C 438.76 686.13 428.12 686.14 417.47 686.14 C 417.47 679.05 417.47 671.96 417.47 664.88 C 426.55 664.87 435.63 664.88 444.71 664.87 C 444.70 663.32 444.70 661.77 444.70 660.23 C 435.63 660.22 426.55 660.23 417.47 660.23 C 417.46 653.54 417.47 646.85 417.47 640.16 C 427.88 640.15 438.29 640.16 448.70 640.16 C 448.70 638.52 448.70 636.90 448.70 635.28 C 436.47 635.28 424.23 635.28 411.99 635.28 M 463.74 635.28 C 463.73 653.85 463.74 672.43 463.73 691.00 C 465.56 690.99 467.38 690.99 469.22 691.00 C 469.22 675.83 469.22 660.66 469.22 645.49 C 481.36 660.66 493.44 675.87 505.60 691.02 C 507.18 691.00 508.76 690.99 510.35 690.99 C 510.34 672.44 510.35 653.90 510.34 635.36 C 508.51 635.35 506.67 635.35 504.84 635.36 C 504.84 650.79 504.85 666.22 504.84 681.65 C 492.53 666.20 480.26 650.72 467.95 635.28 C 466.54 635.27 465.14 635.27 463.74 635.28 M 522.58 635.28 C 522.57 636.90 522.57 638.52 522.58 640.15 C 529.20 640.16 535.82 640.15 542.44 640.16 C 542.43 657.10 542.44 674.05 542.43 691.00 C 544.26 690.99 546.09 690.99 547.93 691.00 C 547.92 674.05 547.92 657.10 547.93 640.16 C 554.54 640.15 561.16 640.16 567.78 640.15 C 567.77 638.52 567.78 636.90 567.78 635.28 C 552.71 635.28 537.64 635.27 522.58 635.28 M 579.99 635.28 C 579.98 653.85 579.99 672.42 579.99 691.00 C 592.46 691.00 604.93 691.00 617.41 691.00 C 617.40 689.37 617.40 687.75 617.41 686.14 C 606.76 686.13 596.12 686.13 585.48 686.14 C 585.46 679.05 585.47 671.97 585.47 664.88 C 594.55 664.87 603.63 664.88 612.71 664.87 C 612.70 663.32 612.70 661.77 612.70 660.23 C 603.63 660.22 594.55 660.23 585.47 660.23 C 585.46 653.54 585.47 646.85 585.47 640.16 C 595.88 640.15 606.29 640.16 616.70 640.16 C 616.69 638.52 616.70 636.90 616.70 635.28 C 604.46 635.28 592.23 635.28 579.99 635.28 M 631.74 635.28 C 631.73 653.85 631.73 672.42 631.73 691.00 C 639.21 690.89 646.70 691.24 654.17 690.80 C 662.39 690.12 670.29 685.26 674.00 677.79 C 678.15 669.53 678.33 659.46 675.10 650.86 C 672.23 643.15 665.10 637.31 657.01 635.89 C 648.65 634.66 640.15 635.54 631.74 635.28 M 715.48 635.28 C 715.48 653.85 715.49 672.42 715.48 691.00 C 717.30 690.99 719.13 690.99 720.97 691.00 C 720.97 684.14 720.97 677.29 720.98 670.44 C 726.47 670.44 731.96 670.43 737.46 670.44 C 741.86 677.30 746.17 684.23 750.64 691.04 C 752.67 691.00 754.71 690.99 756.76 690.98 C 752.21 683.85 747.70 676.70 743.14 669.58 C 753.13 667.42 758.11 655.10 754.13 646.13 C 751.67 640.12 745.76 635.21 739.07 635.30 C 731.21 635.24 723.34 635.29 715.48 635.28 M 770.74 635.28 C 770.73 653.85 770.73 672.42 770.73 691.00 C 783.21 691.00 795.68 691.00 808.16 691.00 C 808.15 689.37 808.15 687.75 808.15 686.14 C 797.51 686.13 786.86 686.14 776.22 686.14 C 776.22 679.05 776.22 671.96 776.22 664.88 C 785.30 664.87 794.37 664.88 803.45 664.88 C 803.44 663.32 803.45 661.77 803.45 660.23 C 794.37 660.23 785.30 660.23 776.22 660.23 C 776.21 653.54 776.22 646.85 776.22 640.16 C 786.63 640.15 797.04 640.16 807.45 640.16 C 807.44 638.52 807.45 636.90 807.46 635.28 C 795.21 635.27 782.98 635.28 770.74 635.28 M 816.52 635.28 C 824.25 653.86 832.01 672.43 839.75 691.01 C 841.33 690.99 842.94 690.99 844.55 690.98 C 852.26 672.40 860.04 653.85 867.76 635.28 C 865.84 635.27 863.93 635.27 862.04 635.28 C 855.40 651.56 848.80 667.86 842.17 684.15 C 835.52 667.87 828.89 651.58 822.26 635.29 C 820.33 635.27 818.42 635.27 816.52 635.28 M 896.44 635.60 C 882.94 638.93 874.24 653.66 876.33 667.15 C 877.73 679.20 887.55 690.44 900.03 691.28 C 910.90 692.45 921.37 685.27 925.62 675.46 C 931.58 663.07 927.22 646.79 915.80 639.12 C 910.25 635.19 903.01 633.98 896.44 635.60 M 942.48 635.28 C 942.48 653.85 942.49 672.42 942.48 691.00 C 955.04 691.00 967.60 691.00 980.16 691.00 C 980.14 689.37 980.14 687.75 980.15 686.14 C 969.43 686.13 958.70 686.14 947.97 686.14 C 947.97 669.18 947.98 652.23 947.97 635.28 C 946.13 635.27 944.30 635.27 942.48 635.28 M 991.45 635.28 C 991.45 642.19 991.45 649.09 991.45 656.00 C 991.38 664.54 991.08 673.74 995.67 681.32 C 1003.38 694.71 1025.87 694.91 1033.90 681.75 C 1037.38 676.19 1038.32 669.46 1038.37 663.01 C 1038.38 653.77 1038.37 644.53 1038.38 635.29 C 1036.54 635.28 1034.69 635.27 1032.88 635.28 C 1032.86 644.53 1032.89 653.79 1032.86 663.06 C 1032.72 668.58 1032.21 674.42 1029.14 679.19 C 1023.17 688.88 1006.79 689.00 1000.72 679.37 C 997.55 674.54 996.97 668.59 996.87 662.97 C 996.84 653.74 996.87 644.51 996.86 635.28 C 995.04 635.27 993.24 635.27 991.45 635.28 M 1049.58 635.28 C 1049.56 636.90 1049.56 638.52 1049.58 640.15 C 1056.19 640.16 1062.81 640.15 1069.44 640.16 C 1069.43 657.10 1069.44 674.05 1069.43 691.00 C 1071.25 690.99 1073.08 690.99 1074.93 691.00 C 1074.92 674.05 1074.92 657.10 1074.93 640.16 C 1081.54 640.15 1088.16 640.16 1094.78 640.15 C 1094.77 638.52 1094.77 636.90 1094.78 635.28 C 1079.71 635.28 1064.64 635.27 1049.58 635.28 M 1107.23 635.28 C 1107.22 653.85 1107.24 672.42 1107.23 691.00 C 1109.05 690.99 1110.88 690.99 1112.72 691.00 C 1112.72 672.42 1112.72 653.85 1112.72 635.28 C 1110.88 635.27 1109.05 635.27 1107.23 635.28 M 1147.44 635.54 C 1138.80 637.58 1131.78 644.46 1128.73 652.70 C 1124.09 664.46 1128.05 679.15 1138.37 686.61 C 1145.52 692.02 1155.76 692.92 1163.75 688.82 C 1170.07 685.69 1174.86 679.91 1177.25 673.32 C 1181.94 661.09 1177.16 645.96 1166.13 638.84 C 1160.72 635.17 1153.78 634.06 1147.44 635.54 M 1193.24 635.28 C 1193.22 653.85 1193.23 672.42 1193.23 691.00 C 1195.05 690.99 1196.88 690.99 1198.72 691.00 C 1198.72 675.83 1198.72 660.66 1198.72 645.50 C 1210.85 660.66 1222.95 675.84 1235.07 691.00 C 1236.64 690.99 1238.24 690.99 1239.85 691.00 C 1239.84 672.45 1239.85 653.90 1239.84 635.36 C 1237.99 635.35 1236.16 635.35 1234.34 635.36 C 1234.33 650.79 1234.35 666.21 1234.34 681.64 C 1222.05 666.20 1209.76 650.75 1197.48 635.29 C 1196.05 635.27 1194.63 635.27 1193.24 635.28 Z" />
<path fill="#ffffff" opacity="1.00" d=" M 913.65 102.00 C 961.74 102.04 1009.84 101.93 1057.93 102.06 C 1084.73 101.97 1109.24 121.33 1117.90 146.25 C 1124.86 164.90 1125.51 186.12 1118.57 204.88 C 1109.17 232.00 1082.37 253.37 1053.07 252.49 C 1006.60 252.51 960.12 252.50 913.65 252.50 C 913.65 202.33 913.65 152.17 913.65 102.00 Z" />
<path fill="#ffffff" opacity="1.00" d=" M 913.64 285.25 C 965.77 285.27 1017.90 285.20 1070.02 285.29 C 1095.15 285.27 1118.18 301.55 1130.05 323.12 C 1142.08 345.16 1143.66 372.90 1132.75 395.69 C 1121.06 421.27 1094.47 439.83 1066.07 439.97 C 1015.26 440.04 964.45 439.98 913.65 440.00 C 913.65 388.42 913.65 336.84 913.64 285.25 Z" />
<path fill="#ffffff" opacity="1.00" d=" M 637.22 640.16 C 642.83 640.26 648.46 639.91 654.06 640.39 C 660.71 641.04 666.84 645.41 669.49 651.57 C 672.73 659.04 672.65 667.98 669.16 675.34 C 666.24 681.51 659.79 685.64 653.01 686.01 C 647.75 686.30 642.48 686.06 637.22 686.14 C 637.22 670.81 637.22 655.48 637.22 640.16 Z" />
<path fill="#ffffff" opacity="1.00" d=" M 720.97 640.16 C 727.28 640.23 733.59 640.00 739.89 640.26 C 746.34 641.04 750.64 647.94 749.92 654.14 C 749.52 659.48 745.64 665.22 739.90 665.52 C 733.59 665.67 727.28 665.53 720.98 665.57 C 720.97 657.10 720.97 648.63 720.97 640.16 Z" />
<path fill="#ffffff" opacity="1.00" d=" M 896.49 640.77 C 903.78 638.41 912.15 641.05 916.96 646.96 C 925.51 656.72 924.49 673.15 914.69 681.69 C 908.55 687.34 898.55 688.05 891.69 683.30 C 883.60 677.91 880.06 667.22 882.10 657.89 C 883.63 650.29 888.90 643.13 896.49 640.77 Z" />
<path fill="#ffffff" opacity="1.00" d=" M 1147.48 640.70 C 1153.40 638.93 1160.13 640.22 1164.88 644.21 C 1173.34 651.03 1175.81 663.72 1171.36 673.49 C 1168.32 680.77 1161.12 686.62 1152.98 686.44 C 1145.09 686.68 1137.95 681.25 1134.76 674.26 C 1128.70 662.26 1134.05 644.83 1147.48 640.70 Z" />
<path fill="#ffffff" opacity="1.00" d=" M 229.90 669.26 C 233.69 660.08 237.46 650.90 241.27 641.74 C 245.01 650.91 248.76 660.08 252.49 669.26 C 244.96 669.26 237.43 669.26 229.90 669.26 Z" />
</g>
<g id="#000000ff">
<path fill="#000000" opacity="1.00" d=" M 728.21 1.75 C 739.53 1.75 750.85 1.75 762.18 1.75 C 762.18 175.17 762.18 348.58 762.18 522.00 C 750.85 522.00 739.53 522.00 728.21 522.00 C 728.22 348.58 728.21 175.17 728.21 1.75 Z" />
<path fill="#000000" opacity="1.00" d=" M 1.39 131.75 C 1.40 110.08 1.39 88.42 1.40 66.75 C 58.26 66.75 115.12 66.75 171.98 66.75 C 182.07 66.82 192.11 68.03 201.99 70.12 C 233.32 79.23 260.42 101.23 276.44 129.57 C 290.37 153.40 296.67 181.64 293.71 209.12 C 291.61 231.57 283.89 253.51 271.20 272.15 C 255.65 295.20 231.11 312.33 203.65 317.51 C 237.02 370.00 270.37 422.50 303.73 474.99 C 288.57 475.01 273.41 474.99 258.24 475.00 C 226.24 424.84 194.35 374.61 162.26 324.50 C 122.02 324.50 81.78 324.50 41.54 324.50 C 41.54 374.67 41.54 424.83 41.54 475.00 C 28.16 475.00 14.77 475.00 1.39 475.00 C 1.39 398.33 1.40 321.67 1.39 245.00 C 14.77 245.00 28.16 245.00 41.54 245.00 C 41.54 259.58 41.55 274.16 41.54 288.75 C 84.37 288.76 127.19 288.74 170.02 288.76 C 178.69 288.74 187.57 288.47 195.84 285.59 C 213.55 280.41 228.24 267.52 237.92 252.06 C 251.63 230.59 257.00 204.04 252.95 178.91 C 249.60 159.10 240.05 140.41 226.02 126.05 C 213.26 113.82 196.85 104.55 179.02 102.99 C 175.69 102.71 172.35 102.50 169.00 102.50 C 126.52 102.51 84.03 102.50 41.54 102.50 C 41.54 112.25 41.54 122.00 41.54 131.75 C 28.16 131.75 14.77 131.75 1.39 131.75 Z" />
<path fill="#000000" opacity="1.00" d=" M 376.80 66.75 C 466.44 66.75 556.09 66.75 645.73 66.75 C 645.74 78.67 645.74 90.58 645.73 102.50 C 569.48 102.50 493.22 102.50 416.96 102.50 C 416.93 151.50 416.93 200.50 416.96 249.50 C 483.49 249.50 550.01 249.50 616.54 249.50 C 616.54 260.83 616.54 272.17 616.54 283.50 C 550.01 283.50 483.49 283.50 416.96 283.50 C 416.92 335.42 416.95 387.33 416.95 439.25 C 494.94 439.25 572.93 439.24 650.92 439.25 C 650.94 451.16 650.92 463.08 650.93 475.00 C 559.55 475.00 468.17 475.00 376.80 475.00 C 376.80 338.92 376.79 202.83 376.80 66.75 Z" />
<path fill="#000000" opacity="1.00" d=" M 873.50 475.00 C 873.50 338.91 873.49 202.83 873.50 66.75 C 926.34 66.75 979.18 66.75 1032.02 66.75 C 1047.71 66.94 1063.43 66.31 1079.11 67.20 C 1103.60 69.58 1126.08 83.83 1140.59 103.43 C 1159.23 128.01 1166.87 160.52 1161.42 190.86 C 1157.57 212.21 1147.23 232.52 1131.52 247.57 C 1123.64 255.10 1114.38 261.02 1104.58 265.72 C 1124.89 271.77 1143.68 283.50 1156.85 300.25 C 1169.45 315.81 1177.40 335.00 1179.58 354.89 C 1181.22 369.34 1180.61 384.17 1176.48 398.17 C 1169.84 420.68 1155.06 440.56 1135.81 453.89 C 1115.57 468.16 1090.64 474.91 1066.01 474.98 C 1001.84 475.02 937.67 474.99 873.50 475.00 M 913.65 102.00 C 913.65 152.17 913.65 202.33 913.65 252.50 C 960.12 252.50 1006.60 252.51 1053.07 252.49 C 1082.37 253.37 1109.17 232.00 1118.57 204.88 C 1125.51 186.12 1124.86 164.90 1117.90 146.25 C 1109.24 121.33 1084.73 101.97 1057.93 102.06 C 1009.84 101.93 961.74 102.04 913.65 102.00 M 913.64 285.25 C 913.65 336.84 913.65 388.42 913.65 440.00 C 964.45 439.98 1015.26 440.04 1066.07 439.97 C 1094.47 439.83 1121.06 421.27 1132.75 395.69 C 1143.66 372.90 1142.08 345.16 1130.05 323.12 C 1118.18 301.55 1095.15 285.27 1070.02 285.29 C 1017.90 285.20 965.77 285.27 913.64 285.25 Z" />
<path fill="#000000" opacity="1.00" d=" M 1256.37 475.00 C 1256.38 338.91 1256.37 202.83 1256.38 66.75 C 1269.75 66.75 1283.14 66.75 1296.52 66.75 C 1296.53 190.92 1296.52 315.08 1296.52 439.25 C 1375.13 439.25 1453.73 439.24 1532.33 439.25 C 1532.33 451.17 1532.33 463.08 1532.33 475.00 C 1440.35 475.00 1348.36 475.00 1256.37 475.00 Z" />
<path fill="#000000" opacity="1.00" d=" M 215.69 691.00 C 223.46 672.42 231.22 653.84 239.01 635.27 C 240.55 635.27 242.09 635.27 243.63 635.29 C 251.34 653.86 259.06 672.43 266.78 691.00 C 264.84 690.99 262.90 690.99 260.97 691.00 C 258.56 685.19 256.16 679.38 253.75 673.58 C 245.40 673.58 237.06 673.58 228.72 673.58 C 226.34 679.38 223.95 685.18 221.59 690.99 C 219.62 690.99 217.66 690.99 215.69 691.00 M 229.90 669.26 C 237.43 669.26 244.96 669.26 252.49 669.26 C 248.76 660.08 245.01 650.91 241.27 641.74 C 237.46 650.90 233.69 660.08 229.90 669.26 Z" />
<path fill="#000000" opacity="1.00" d=" M 311.54 636.18 C 320.47 633.35 330.82 635.10 337.99 641.27 C 337.12 642.71 336.24 644.16 335.39 645.62 C 328.99 639.42 318.60 638.08 310.62 641.72 C 305.05 644.58 304.04 654.04 309.87 657.16 C 318.25 661.57 328.82 660.58 336.48 666.59 C 343.58 672.46 341.46 685.38 333.04 688.99 C 321.68 693.87 307.62 691.45 298.25 683.43 C 299.15 681.93 300.05 680.46 300.96 678.98 C 307.50 685.28 317.18 687.72 326.03 686.12 C 328.75 685.60 331.57 684.49 333.29 682.21 C 336.03 678.39 335.32 672.20 331.04 669.80 C 322.88 664.93 312.43 665.88 304.58 660.35 C 299.71 656.81 299.40 649.76 301.52 644.60 C 303.21 640.31 307.30 637.56 311.54 636.18 Z" />
<path fill="#000000" opacity="1.00" d=" M 355.86 645.91 C 362.99 635.24 378.64 631.66 389.63 638.32 C 393.09 640.38 395.70 643.58 397.60 647.10 C 396.17 647.99 394.73 648.87 393.31 649.77 C 390.21 643.80 383.79 639.86 377.05 639.95 C 368.94 639.50 361.39 644.98 358.30 652.30 C 353.15 663.30 356.98 678.09 367.79 684.15 C 376.79 689.43 389.52 685.51 394.16 676.20 C 395.68 676.99 397.20 677.79 398.73 678.60 C 392.46 691.13 374.24 695.50 363.01 687.08 C 350.06 678.22 346.55 658.60 355.86 645.91 Z" />
<path fill="#000000" opacity="1.00" d=" M 411.99 635.28 C 424.23 635.28 436.47 635.28 448.70 635.28 C 448.70 636.90 448.70 638.52 448.70 640.16 C 438.29 640.16 427.88 640.15 417.47 640.16 C 417.47 646.85 417.46 653.54 417.47 660.23 C 426.55 660.23 435.63 660.22 444.70 660.23 C 444.70 661.77 444.70 663.32 444.71 664.87 C 435.63 664.88 426.55 664.87 417.47 664.88 C 417.47 671.96 417.47 679.05 417.47 686.14 C 428.12 686.14 438.76 686.13 449.41 686.14 C 449.40 687.75 449.40 689.37 449.41 691.00 C 436.93 691.00 424.46 691.00 411.99 691.00 C 411.99 672.42 411.98 653.85 411.99 635.28 Z" />
<path fill="#000000" opacity="1.00" d=" M 463.74 635.28 C 465.14 635.27 466.54 635.27 467.95 635.28 C 480.26 650.72 492.53 666.20 504.84 681.65 C 504.85 666.22 504.84 650.79 504.84 635.36 C 506.67 635.35 508.51 635.35 510.34 635.36 C 510.35 653.90 510.34 672.44 510.35 690.99 C 508.76 690.99 507.18 691.00 505.60 691.02 C 493.44 675.87 481.36 660.66 469.22 645.49 C 469.22 660.66 469.22 675.83 469.22 691.00 C 467.38 690.99 465.56 690.99 463.73 691.00 C 463.74 672.43 463.73 653.85 463.74 635.28 Z" />
<path fill="#000000" opacity="1.00" d=" M 522.58 635.28 C 537.64 635.27 552.71 635.28 567.78 635.28 C 567.78 636.90 567.77 638.52 567.78 640.15 C 561.16 640.16 554.54 640.15 547.93 640.16 C 547.92 657.10 547.92 674.05 547.93 691.00 C 546.09 690.99 544.26 690.99 542.43 691.00 C 542.44 674.05 542.43 657.10 542.44 640.16 C 535.82 640.15 529.20 640.16 522.58 640.15 C 522.57 638.52 522.57 636.90 522.58 635.28 Z" />
<path fill="#000000" opacity="1.00" d=" M 579.99 635.28 C 592.23 635.28 604.46 635.28 616.70 635.28 C 616.70 636.90 616.69 638.52 616.70 640.16 C 606.29 640.16 595.88 640.15 585.47 640.16 C 585.47 646.85 585.46 653.54 585.47 660.23 C 594.55 660.23 603.63 660.22 612.70 660.23 C 612.70 661.77 612.70 663.32 612.71 664.87 C 603.63 664.88 594.55 664.87 585.47 664.88 C 585.47 671.97 585.46 679.05 585.48 686.14 C 596.12 686.13 606.76 686.13 617.41 686.14 C 617.40 687.75 617.40 689.37 617.41 691.00 C 604.93 691.00 592.46 691.00 579.99 691.00 C 579.99 672.42 579.98 653.85 579.99 635.28 Z" />
<path fill="#000000" opacity="1.00" d=" M 631.74 635.28 C 640.15 635.54 648.65 634.66 657.01 635.89 C 665.10 637.31 672.23 643.15 675.10 650.86 C 678.33 659.46 678.15 669.53 674.00 677.79 C 670.29 685.26 662.39 690.12 654.17 690.80 C 646.70 691.24 639.21 690.89 631.73 691.00 C 631.73 672.42 631.73 653.85 631.74 635.28 M 637.22 640.16 C 637.22 655.48 637.22 670.81 637.22 686.14 C 642.48 686.06 647.75 686.30 653.01 686.01 C 659.79 685.64 666.24 681.51 669.16 675.34 C 672.65 667.98 672.73 659.04 669.49 651.57 C 666.84 645.41 660.71 641.04 654.06 640.39 C 648.46 639.91 642.83 640.26 637.22 640.16 Z" />
<path fill="#000000" opacity="1.00" d=" M 715.48 635.28 C 723.34 635.29 731.21 635.24 739.07 635.30 C 745.76 635.21 751.67 640.12 754.13 646.13 C 758.11 655.10 753.13 667.42 743.14 669.58 C 747.70 676.70 752.21 683.85 756.76 690.98 C 754.71 690.99 752.67 691.00 750.64 691.04 C 746.17 684.23 741.86 677.30 737.46 670.44 C 731.96 670.43 726.47 670.44 720.98 670.44 C 720.97 677.29 720.97 684.14 720.97 691.00 C 719.13 690.99 717.30 690.99 715.48 691.00 C 715.49 672.42 715.48 653.85 715.48 635.28 M 720.97 640.16 C 720.97 648.63 720.97 657.10 720.98 665.57 C 727.28 665.53 733.59 665.67 739.90 665.52 C 745.64 665.22 749.52 659.48 749.92 654.14 C 750.64 647.94 746.34 641.04 739.89 640.26 C 733.59 640.00 727.28 640.23 720.97 640.16 Z" />
<path fill="#000000" opacity="1.00" d=" M 770.74 635.28 C 782.98 635.28 795.21 635.27 807.46 635.28 C 807.45 636.90 807.44 638.52 807.45 640.16 C 797.04 640.16 786.63 640.15 776.22 640.16 C 776.22 646.85 776.21 653.54 776.22 660.23 C 785.30 660.23 794.37 660.23 803.45 660.23 C 803.45 661.77 803.44 663.32 803.45 664.88 C 794.37 664.88 785.30 664.87 776.22 664.88 C 776.22 671.96 776.22 679.05 776.22 686.14 C 786.86 686.14 797.51 686.13 808.15 686.14 C 808.15 687.75 808.15 689.37 808.16 691.00 C 795.68 691.00 783.21 691.00 770.73 691.00 C 770.73 672.42 770.73 653.85 770.74 635.28 Z" />
<path fill="#000000" opacity="1.00" d=" M 816.52 635.28 C 818.42 635.27 820.33 635.27 822.26 635.29 C 828.89 651.58 835.52 667.87 842.17 684.15 C 848.80 667.86 855.40 651.56 862.04 635.28 C 863.93 635.27 865.84 635.27 867.76 635.28 C 860.04 653.85 852.26 672.40 844.55 690.98 C 842.94 690.99 841.33 690.99 839.75 691.01 C 832.01 672.43 824.25 653.86 816.52 635.28 Z" />
<path fill="#000000" opacity="1.00" d=" M 896.44 635.60 C 903.01 633.98 910.25 635.19 915.80 639.12 C 927.22 646.79 931.58 663.07 925.62 675.46 C 921.37 685.27 910.90 692.45 900.03 691.28 C 887.55 690.44 877.73 679.20 876.33 667.15 C 874.24 653.66 882.94 638.93 896.44 635.60 M 896.49 640.77 C 888.90 643.13 883.63 650.29 882.10 657.89 C 880.06 667.22 883.60 677.91 891.69 683.30 C 898.55 688.05 908.55 687.34 914.69 681.69 C 924.49 673.15 925.51 656.72 916.96 646.96 C 912.15 641.05 903.78 638.41 896.49 640.77 Z" />
<path fill="#000000" opacity="1.00" d=" M 942.48 635.28 C 944.30 635.27 946.13 635.27 947.97 635.28 C 947.98 652.23 947.97 669.18 947.97 686.14 C 958.70 686.14 969.43 686.13 980.15 686.14 C 980.14 687.75 980.14 689.37 980.16 691.00 C 967.60 691.00 955.04 691.00 942.48 691.00 C 942.49 672.42 942.48 653.85 942.48 635.28 Z" />
<path fill="#000000" opacity="1.00" d=" M 991.45 635.28 C 993.24 635.27 995.04 635.27 996.86 635.28 C 996.87 644.51 996.84 653.74 996.87 662.97 C 996.97 668.59 997.55 674.54 1000.72 679.37 C 1006.79 689.00 1023.17 688.88 1029.14 679.19 C 1032.21 674.42 1032.72 668.58 1032.86 663.06 C 1032.89 653.79 1032.86 644.53 1032.88 635.28 C 1034.69 635.27 1036.54 635.28 1038.38 635.29 C 1038.37 644.53 1038.38 653.77 1038.37 663.01 C 1038.32 669.46 1037.38 676.19 1033.90 681.75 C 1025.87 694.91 1003.38 694.71 995.67 681.32 C 991.08 673.74 991.38 664.54 991.45 656.00 C 991.45 649.09 991.45 642.19 991.45 635.28 Z" />
<path fill="#000000" opacity="1.00" d=" M 1049.58 635.28 C 1064.64 635.27 1079.71 635.28 1094.78 635.28 C 1094.77 636.90 1094.77 638.52 1094.78 640.15 C 1088.16 640.16 1081.54 640.15 1074.93 640.16 C 1074.92 657.10 1074.92 674.05 1074.93 691.00 C 1073.08 690.99 1071.25 690.99 1069.43 691.00 C 1069.44 674.05 1069.43 657.10 1069.44 640.16 C 1062.81 640.15 1056.19 640.16 1049.58 640.15 C 1049.56 638.52 1049.56 636.90 1049.58 635.28 Z" />
<path fill="#000000" opacity="1.00" d=" M 1107.23 635.28 C 1109.05 635.27 1110.88 635.27 1112.72 635.28 C 1112.72 653.85 1112.72 672.42 1112.72 691.00 C 1110.88 690.99 1109.05 690.99 1107.23 691.00 C 1107.24 672.42 1107.22 653.85 1107.23 635.28 Z" />
<path fill="#000000" opacity="1.00" d=" M 1147.44 635.54 C 1153.78 634.06 1160.72 635.17 1166.13 638.84 C 1177.16 645.96 1181.94 661.09 1177.25 673.32 C 1174.86 679.91 1170.07 685.69 1163.75 688.82 C 1155.76 692.92 1145.52 692.02 1138.37 686.61 C 1128.05 679.15 1124.09 664.46 1128.73 652.70 C 1131.78 644.46 1138.80 637.58 1147.44 635.54 M 1147.48 640.70 C 1134.05 644.83 1128.70 662.26 1134.76 674.26 C 1137.95 681.25 1145.09 686.68 1152.98 686.44 C 1161.12 686.62 1168.32 680.77 1171.36 673.49 C 1175.81 663.72 1173.34 651.03 1164.88 644.21 C 1160.13 640.22 1153.40 638.93 1147.48 640.70 Z" />
<path fill="#000000" opacity="1.00" d=" M 1193.24 635.28 C 1194.63 635.27 1196.05 635.27 1197.48 635.29 C 1209.76 650.75 1222.05 666.20 1234.34 681.64 C 1234.35 666.21 1234.33 650.79 1234.34 635.36 C 1236.16 635.35 1237.99 635.35 1239.84 635.36 C 1239.85 653.90 1239.84 672.45 1239.85 691.00 C 1238.24 690.99 1236.64 690.99 1235.07 691.00 C 1222.95 675.84 1210.85 660.66 1198.72 645.50 C 1198.72 660.66 1198.72 675.83 1198.72 691.00 C 1196.88 690.99 1195.05 690.99 1193.23 691.00 C 1193.23 672.42 1193.22 653.85 1193.24 635.28 Z" />
</g>
</svg>
